<svg xmlns="http://www.w3.org/2000/svg" viewBox="0 0 1440 980" role="img" aria-labelledby="title desc">
  <title id="title">Luxury jadeite still life</title>
  <desc id="desc">An abstract luxury jadeite composition with deep blue and gold accents.</desc>
  <defs>
    <linearGradient id="bg" x1="0" y1="0" x2="1" y2="1">
      <stop offset="0" stop-color="#0d3654"/>
      <stop offset="0.55" stop-color="#1a5276"/>
      <stop offset="1" stop-color="#f5f0e8"/>
    </linearGradient>
    <radialGradient id="jade" cx="45%" cy="35%" r="65%">
      <stop offset="0" stop-color="#d9f4df"/>
      <stop offset="0.42" stop-color="#75b889"/>
      <stop offset="0.75" stop-color="#1f7a5a"/>
      <stop offset="1" stop-color="#0d3654"/>
    </radialGradient>
    <filter id="shadow" x="-20%" y="-20%" width="140%" height="140%">
      <feDropShadow dx="0" dy="38" stdDeviation="34" flood-color="#0d3654" flood-opacity="0.28"/>
    </filter>
  </defs>
  <rect width="1440" height="980" fill="url(#bg)"/>
  <path d="M0 740 C260 640 420 820 680 700 C950 576 1110 640 1440 520 L1440 980 L0 980Z" fill="#f5f0e8" opacity="0.72"/>
  <circle cx="1025" cy="268" r="250" fill="none" stroke="#c9a84c" stroke-width="3" opacity="0.7"/>
  <circle cx="940" cy="470" r="250" fill="url(#jade)" filter="url(#shadow)"/>
  <circle cx="940" cy="470" r="202" fill="none" stroke="#ffffff" stroke-width="2" opacity="0.35"/>
  <ellipse cx="806" cy="360" rx="72" ry="128" fill="#ffffff" opacity="0.16" transform="rotate(32 806 360)"/>
  <path d="M255 214 H608" stroke="#c9a84c" stroke-width="2" opacity="0.75"/>
  <path d="M255 764 H470" stroke="#0d3654" stroke-width="2" opacity="0.35"/>
  <rect x="180" y="268" width="300" height="410" fill="#ffffff" opacity="0.08" stroke="#c9a84c" stroke-width="2"/>
  <rect x="210" y="298" width="240" height="350" fill="none" stroke="#ffffff" stroke-width="1" opacity="0.26"/>
</svg>
